<svg width="362" height="362" viewBox="0 0 362 362" fill="none" preserveAspectRatio="none" 
    shape-rendering="crispEdges" 
    xmlns="http://www.w3.org/2000/svg" >
<path fill-rule="evenodd" clip-rule="evenodd" d="M361.8 195.988L361.8 165.213C353.385 165.397 344.912 162.281 338.486 155.865L338.468 155.848L205.138 22.5156C199.071 16.4495 195.95 8.5516 195.774 0.600852L166.42 0.600853C166.243 8.54964 163.122 16.4495 157.055 22.5156L23.7336 155.857C17.3042 162.286 8.8196 165.408 0.394523 165.222L0.394524 195.98C8.81963 195.793 17.3043 198.915 23.7336 205.344L157.055 338.666L157.138 338.75C163.512 345.169 166.605 353.617 166.42 362.006L195.774 362.006C195.593 353.847 198.514 345.633 204.537 339.283C204.734 339.076 204.935 338.869 205.138 338.666L338.468 205.354C344.896 198.925 353.377 195.803 361.8 195.988ZM15.7753 181.303C15.7753 189.492 18.8994 197.682 25.1478 203.93L158.478 337.26C170.968 349.75 191.216 349.756 203.714 337.277L203.733 337.26L337.062 203.93C343.311 197.682 346.435 189.492 346.435 181.303C346.435 173.113 343.311 164.924 337.062 158.676L203.733 25.3457L203.714 25.3281C191.216 12.8496 170.968 12.8555 158.478 25.3457L25.1478 158.676C18.8994 164.924 15.7753 173.113 15.7753 181.303Z" fill="#F7F7F7"/>
</svg>
