<svg width="362" height="362" viewBox="0 0 362 362" fill="none" xmlns="http://www.w3.org/2000/svg">
<path fill-rule="evenodd" clip-rule="evenodd" d="M361.421 195.988L361.421 165.213C353.006 165.397 344.533 162.281 338.107 155.865L338.089 155.848L204.759 22.5156C198.692 16.4495 195.571 8.5516 195.395 0.600852L166.041 0.600853C165.864 8.54964 162.743 16.4495 156.676 22.5156L23.3547 155.857C16.9253 162.286 8.44069 165.408 0.0156164 165.222L0.0156177 195.98C8.44073 195.793 16.9254 198.915 23.3547 205.344L156.676 338.666L156.759 338.75C163.133 345.169 166.227 353.617 166.041 362.006L195.395 362.006C195.214 353.847 198.135 345.633 204.158 339.283C204.355 339.076 204.556 338.869 204.759 338.666L338.089 205.354C344.517 198.925 352.998 195.803 361.421 195.988ZM15.3964 181.303C15.3964 189.492 18.5205 197.682 24.7689 203.93L158.099 337.26C170.589 349.75 190.837 349.756 203.335 337.277L203.354 337.26L336.684 203.93C342.932 197.682 346.056 189.492 346.056 181.303C346.056 173.113 342.932 164.924 336.684 158.676L203.354 25.3457L203.335 25.3281C190.837 12.8496 170.589 12.8555 158.099 25.3457L24.7689 158.676C18.5205 164.924 15.3964 173.113 15.3964 181.303Z" fill="#FAFAFA"/>
</svg>
