<svg width="362" height="362" viewBox="0 0 362 362" fill="none" xmlns="http://www.w3.org/2000/svg">
<path fill-rule="evenodd" clip-rule="evenodd" d="M195.574 0.00585938H188.188C188.188 4.03809 184.919 7.30566 180.888 7.30566C176.855 7.30566 173.588 4.03809 173.588 0.00585938H164.8C164.984 8.4209 161.868 16.8945 155.452 23.3193L155.435 23.3379L22.1025 156.667C16.0361 162.734 8.13867 165.855 0.1875 166.032V173.411C4.21973 173.411 7.4873 176.679 7.4873 180.711C7.4873 184.743 4.21973 188.011 0.1875 188.011V195.386C8.13672 195.562 16.0361 198.684 22.1025 204.751L155.444 338.072C161.873 344.501 164.994 352.986 164.809 361.411H173.593C173.593 357.379 176.86 354.111 180.893 354.111C184.924 354.111 188.192 357.379 188.192 361.411H195.566C195.38 352.986 198.501 344.501 204.931 338.072L338.253 204.751L338.337 204.668C344.756 198.294 353.203 195.2 361.593 195.386V188.006C357.561 188.006 354.293 184.737 354.293 180.706C354.293 176.674 357.561 173.406 361.593 173.406V166.032C353.434 166.213 345.22 163.292 338.87 157.269L338.545 156.955L338.253 156.667L204.94 23.3379C198.512 16.9102 195.39 8.42871 195.574 0.00585938ZM180.89 346.03C189.079 346.03 197.269 342.906 203.517 336.658L336.847 203.328C349.337 190.837 349.343 170.59 336.864 158.092L336.847 158.073L203.517 24.7432C197.269 18.4951 189.079 15.3711 180.89 15.3711C172.7 15.3711 164.511 18.4951 158.263 24.7432L24.9326 158.073L24.915 158.092C12.4365 170.59 12.4424 190.837 24.9326 203.328L158.263 336.658C164.511 342.906 172.7 346.03 180.89 346.03Z" fill="#F7F7F7"/>
</svg>
