<svg width="363" height="362" viewBox="0 0 363 362" fill="none" xmlns="http://www.w3.org/2000/svg">
<path fill-rule="evenodd" clip-rule="evenodd" d="M362.143 195.988L362.143 165.213C353.729 165.397 345.255 162.281 338.83 155.865L338.812 155.848L205.482 22.5156C199.415 16.4495 196.294 8.5516 196.117 0.600852L166.763 0.600853C166.587 8.54964 163.465 16.4495 157.399 22.5156L24.0774 155.857C17.648 162.286 9.16335 165.408 0.738273 165.222L0.738274 195.98C9.16338 195.793 17.648 198.915 24.0774 205.344L157.399 338.666L157.482 338.75C163.855 345.169 166.949 353.617 166.763 362.006L196.117 362.006C195.937 353.847 198.858 345.633 204.881 339.283C205.078 339.076 205.278 338.869 205.482 338.666L338.812 205.354C345.239 198.925 353.721 195.803 362.143 195.988ZM16.119 181.303C16.119 189.492 19.2432 197.682 25.4916 203.93L158.821 337.26C171.312 349.75 191.56 349.756 204.058 337.277L204.076 337.26L337.406 203.93C343.655 197.682 346.779 189.492 346.779 181.303C346.779 173.113 343.655 164.924 337.406 158.676L204.076 25.3457L204.058 25.3281C191.56 12.8496 171.312 12.8555 158.821 25.3457L25.4916 158.676C19.2432 164.924 16.119 173.113 16.119 181.303Z" fill="white"/>
</svg>
