<svg width="723" height="724" viewBox="0 0 723 724" fill="none" xmlns="http://www.w3.org/2000/svg">
<path fill-rule="evenodd" clip-rule="evenodd" d="M541.403 2.29428L540.705 1.5959L384.041 158.26C371.544 170.757 351.283 170.757 338.786 158.26L182.121 1.59585L181.414 2.303L180.707 1.59588L0 182.303L157.373 339.676C169.869 352.172 169.869 372.434 157.373 384.93L0 542.303L180.707 723.01L181.414 722.303L182.121 723.01L338.786 566.346C351.282 553.849 371.544 553.849 384.04 566.346L540.704 723.01L541.403 722.311L542.102 723.01L722.809 542.303L565.436 384.93C552.94 372.434 552.94 352.172 565.436 339.675L722.809 182.303L542.102 1.5959L541.403 2.29428ZM359.997 182.306C359.998 182.305 359.999 182.304 359.999 182.303C359.999 182.302 359.998 182.301 359.997 182.3L204.042 26.3446C191.545 13.8478 171.284 13.8478 158.787 26.3446L25.4558 159.676C12.9591 172.172 12.9591 192.434 25.4558 204.93L158.787 338.261C171.284 350.758 191.545 350.758 204.042 338.261L359.997 182.306ZM564.031 26.3534C551.534 13.8566 531.273 13.8566 518.776 26.3534L362.829 182.302C362.828 182.302 362.828 182.303 362.828 182.303C362.828 182.304 362.828 182.305 362.829 182.305L518.776 338.253C531.273 350.749 551.534 350.749 564.031 338.253L697.353 204.93C709.85 192.434 709.85 172.172 697.353 159.676L564.031 26.3534ZM518.776 698.253C531.273 710.75 551.534 710.75 564.031 698.253L697.353 564.93C709.85 552.434 709.85 532.172 697.353 519.676L564.031 386.353C551.534 373.856 531.273 373.856 518.776 386.353L362.829 542.3C362.828 542.301 362.828 542.302 362.828 542.303C362.828 542.304 362.828 542.305 362.829 542.306L518.776 698.253ZM517.37 339.675C529.867 352.172 529.867 372.433 517.37 384.93L384.04 518.26C371.544 530.757 351.282 530.757 338.786 518.26L205.456 384.93C192.959 372.434 192.959 352.172 205.456 339.676L338.786 206.346C351.283 193.849 371.544 193.849 384.041 206.346L517.37 339.675ZM158.787 386.345C171.284 373.848 191.545 373.848 204.042 386.345L359.997 542.3C359.998 542.301 359.998 542.302 359.998 542.302C359.998 542.304 359.998 542.305 359.997 542.306L204.042 698.261C191.545 710.758 171.284 710.758 158.787 698.261L25.4558 564.93C12.9591 552.434 12.959 532.172 25.4558 519.676L158.787 386.345Z" fill="white"/>
<path fill-rule="evenodd" clip-rule="evenodd" d="M721.413 542.302L722.111 541.603L565.447 384.939C552.95 372.442 552.95 352.181 565.447 339.684L722.111 183.02L721.404 182.313L722.111 181.605L541.404 0.898331L384.032 158.271C371.535 170.768 351.274 170.768 338.777 158.271L181.404 0.898315L0.697136 181.605L1.40429 182.313L0.697197 183.02L157.361 339.684C169.858 352.181 169.858 372.442 157.361 384.939L0.697181 541.603L1.39616 542.302L0.697181 543.001L181.404 723.708L338.777 566.335C351.274 553.838 371.535 553.838 384.032 566.335L541.404 723.707L722.111 543L721.413 542.302ZM541.402 360.896C541.402 360.896 541.403 360.897 541.404 360.897C541.405 360.897 541.406 360.896 541.407 360.896L697.363 204.94C709.859 192.443 709.859 172.182 697.363 159.685L564.032 26.3542C551.535 13.8574 531.274 13.8574 518.777 26.3542L385.446 159.685C372.949 172.182 372.949 192.443 385.446 204.94L541.402 360.896ZM697.354 564.929C709.851 552.432 709.851 532.171 697.354 519.674L541.405 363.727C541.405 363.727 541.404 363.726 541.404 363.726C541.403 363.726 541.402 363.727 541.402 363.727L385.455 519.674C372.958 532.171 372.958 552.432 385.455 564.929L518.777 698.251C531.273 710.748 551.535 710.748 564.032 698.251L697.354 564.929ZM25.4541 519.674C12.9573 532.171 12.9574 552.432 25.4541 564.929L158.777 698.252C171.273 710.748 191.535 710.748 204.032 698.252L337.354 564.929C349.851 552.432 349.851 532.171 337.354 519.674L181.407 363.728C181.406 363.727 181.405 363.726 181.404 363.726C181.403 363.726 181.402 363.726 181.401 363.727L25.4541 519.674ZM384.032 518.269C371.535 530.766 351.274 530.766 338.777 518.269L205.447 384.939C192.95 372.442 192.95 352.181 205.447 339.684L338.777 206.354C351.274 193.857 371.535 193.857 384.032 206.354L517.362 339.684C529.858 352.181 529.858 372.442 517.362 384.939L384.032 518.269ZM337.363 159.685C349.859 172.182 349.859 192.443 337.363 204.94L181.407 360.896C181.406 360.896 181.405 360.897 181.405 360.897C181.403 360.897 181.402 360.896 181.401 360.895L25.4459 204.94C12.9491 192.443 12.9491 172.182 25.4459 159.685L158.777 26.3542C171.274 13.8574 191.535 13.8574 204.032 26.3541L337.363 159.685Z" fill="white"/>
</svg>
