<svg width="362" height="362" viewBox="0 0 362 362" fill="none" xmlns="http://www.w3.org/2000/svg">
<path fill-rule="evenodd" clip-rule="evenodd" d="M361.487 195.988L361.487 165.213C353.072 165.397 344.599 162.281 338.174 155.865L338.156 155.848L204.826 22.5156C198.759 16.4495 195.637 8.5516 195.461 0.600852L166.107 0.600853C165.931 8.54964 162.809 16.4495 156.743 22.5156L23.4211 155.857C16.9917 162.286 8.5071 165.408 0.0820226 165.222L0.082024 195.98C8.50713 195.793 16.9918 198.915 23.4211 205.344L156.743 338.666L156.825 338.75C163.199 345.169 166.293 353.617 166.107 362.006L195.461 362.006C195.28 353.847 198.202 345.633 204.225 339.283C204.422 339.076 204.622 338.869 204.826 338.666L338.156 205.354C344.583 198.925 353.064 195.803 361.487 195.988ZM15.4628 181.303C15.4628 189.492 18.5869 197.682 24.8353 203.93L158.165 337.26C170.656 349.75 190.903 349.756 203.402 337.277L203.42 337.26L336.75 203.93C342.998 197.682 346.123 189.492 346.123 181.303C346.123 173.113 342.998 164.924 336.75 158.676L203.42 25.3457L203.402 25.3281C190.903 12.8496 170.656 12.8555 158.165 25.3457L24.8353 158.676C18.5869 164.924 15.4628 173.113 15.4628 181.303Z" fill="#FCFCFC"/>
</svg>
